<svg width="213" height="81" viewBox="0 0 213 81" fill="none" xmlns="http://www.w3.org/2000/svg">
<path d="M51.1951 4.34482C56.8736 10.1358 62.4958 15.9863 68.2107 21.7442C71.0301 24.5868 75.7687 24.9409 79.5775 24.9409C123.256 24.9453 166.934 24.9464 210.613 24.9442C213.726 24.9442 214.051 30.0733 210.05 30.0733C165.811 30.0755 121.574 30.0777 77.3373 30.0799C72.5456 30.0799 68.3265 28.9383 64.9247 25.4703C59.661 20.1095 54.3752 14.7719 49.0673 9.45743C47.5054 7.89331 46.2436 6.85755 45.2817 6.35015C40.8607 4.01721 36.304 5.53611 32.8228 8.97099C24.7441 16.9416 16.6566 24.9022 8.56026 32.853C4.38745 36.9497 3.98704 43.1775 8.1764 47.4529C16.3897 55.8338 24.6118 64.2114 32.8427 72.5857C36.7441 76.56 43.2168 75.6533 46.9892 71.9471C55.0194 64.0669 63.0484 56.1846 71.0764 48.3C72.3934 47.005 73.6211 45.6329 74.7594 44.1835C74.8218 44.1016 74.8576 44.0035 74.862 43.9022C74.8907 43.247 74.6061 42.9161 74.0083 42.9094C71.8706 42.883 66.5914 42.8819 58.1708 42.9061C58.0649 42.9061 58.0053 42.9591 57.9921 43.065C57.8498 44.1934 57.7637 45.3615 57.3435 46.4072C55.2212 51.6842 51.494 54.8576 46.1619 55.9276C42.8727 56.5861 38.2167 56.3081 34.4079 56.2618C30.1921 56.2088 30.6189 52.8236 30.5925 49.7693C30.5925 49.6546 30.5351 49.5972 30.4204 49.5972C27.387 49.595 24.3581 49.5939 21.3335 49.5939C17.3857 49.5906 17.389 44.0875 21.1052 44.0709C24.2091 44.0555 27.3164 44.05 30.427 44.0544C30.5395 44.0544 30.5958 43.9981 30.5958 43.8856V37.3567C30.5958 37.2243 30.5296 37.1593 30.3972 37.1615C26.0667 37.2166 23.0267 37.2177 21.2773 37.1648C17.3394 37.049 17.3626 31.5657 21.3335 31.5657C24.3603 31.5657 27.3892 31.5635 30.4204 31.5591C30.5351 31.5591 30.5925 31.5029 30.5925 31.3904C30.609 28.6736 30.1689 25.1857 33.8453 24.8912C35.0124 24.7964 37.2923 24.7842 40.6853 24.8548C43.6768 24.9144 45.8641 25.1295 47.2473 25.5001C51.7808 26.7134 55.1043 29.61 57.2177 34.1899C57.756 35.3569 58.0064 36.5758 57.9689 37.8465C57.9676 37.8786 57.9727 37.9106 57.9841 37.9407C57.9955 37.9708 58.0128 37.9982 58.0351 38.0214C58.0573 38.0446 58.0841 38.063 58.1136 38.0756C58.1432 38.0882 58.175 38.0947 58.2072 38.0947C63.3518 38.0969 68.5151 38.1024 73.6972 38.1112C77.1586 38.1178 80.1335 39.7095 79.7231 43.6011C79.4584 46.1193 77.827 48.4092 76.0699 50.1498C68.0176 58.1204 59.95 66.0745 51.8669 74.012C50.4373 75.4184 48.8556 77.0034 47.3069 78.0293C41.6582 81.7653 34.2027 81.1266 29.3648 76.2258C21.0081 67.761 12.6724 59.2753 4.35767 50.7686C-1.5359 44.7361 -1.43994 35.9139 4.57606 29.9443C11.234 23.337 19.5168 15.2109 29.4243 5.56589C31.3061 3.73263 32.8019 2.50053 33.9115 1.86959C39.547 -1.34027 46.5921 -0.354148 51.1951 4.34482Z" fill="#072F00"/>
<path d="M81.3347 18.4087H78.3532C78.3233 18.4087 78.2947 18.3968 78.2736 18.3757C78.2525 18.3546 78.2407 18.326 78.2407 18.2961L78.2605 3.29915C78.2605 3.26932 78.2724 3.2407 78.2935 3.2196C78.3146 3.1985 78.3432 3.18665 78.373 3.18665H82.1487C82.1691 3.18665 82.1891 3.19219 82.2066 3.20268C82.2241 3.21317 82.2384 3.22822 82.248 3.24621L88.039 13.809C88.0509 13.8314 88.0701 13.8491 88.0934 13.8592C88.1166 13.8694 88.1427 13.8714 88.1672 13.8649C88.1918 13.8583 88.2134 13.8437 88.2285 13.8233C88.2437 13.803 88.2516 13.7781 88.2508 13.7527L88.1449 3.29915C88.1449 3.26932 88.1567 3.2407 88.1778 3.2196C88.1989 3.1985 88.2276 3.18665 88.2574 3.18665H91.1231C91.153 3.18665 91.1816 3.1985 91.2027 3.2196C91.2238 3.2407 91.2356 3.26932 91.2356 3.29915V18.2961C91.2356 18.326 91.2238 18.3546 91.2027 18.3757C91.1816 18.3968 91.153 18.4087 91.1231 18.4087H87.7312C87.7109 18.4087 87.6909 18.4031 87.6734 18.3926C87.6559 18.3821 87.6416 18.3671 87.632 18.3491L81.5796 7.35284C81.5678 7.3307 81.5489 7.31315 81.526 7.30296C81.503 7.29278 81.4774 7.29055 81.453 7.29664C81.4287 7.30272 81.4071 7.31677 81.3916 7.33655C81.3762 7.35632 81.3678 7.3807 81.3678 7.40579L81.4472 18.2961C81.4472 18.326 81.4353 18.3546 81.4142 18.3757C81.3931 18.3968 81.3645 18.4087 81.3347 18.4087Z" fill="#072F00"/>
<path d="M97.0298 14.8447L95.8088 18.3326C95.8012 18.3547 95.787 18.3739 95.768 18.3875C95.749 18.4012 95.7262 18.4086 95.7029 18.4087H92.6684C92.6497 18.409 92.6313 18.4047 92.6147 18.3961C92.5982 18.3875 92.584 18.3749 92.5735 18.3595C92.563 18.3441 92.5565 18.3263 92.5545 18.3077C92.5526 18.2891 92.5554 18.2704 92.5625 18.2531L98.6679 3.25615C98.6765 3.23528 98.6912 3.21749 98.7101 3.20509C98.729 3.1927 98.7512 3.18628 98.7738 3.18666H101.884C101.907 3.18628 101.929 3.1927 101.948 3.20509C101.967 3.21749 101.982 3.23528 101.99 3.25615L108.211 18.2531C108.218 18.2701 108.221 18.2886 108.219 18.3069C108.218 18.3252 108.211 18.3428 108.201 18.3581C108.191 18.3735 108.178 18.3861 108.161 18.3949C108.145 18.4037 108.127 18.4084 108.109 18.4087H104.916C104.893 18.4088 104.87 18.4019 104.851 18.3889C104.832 18.3759 104.818 18.3574 104.81 18.3359L103.539 14.8414C103.531 14.8199 103.516 14.8014 103.497 14.7884C103.478 14.7754 103.456 14.7685 103.433 14.7686H97.1357C97.1124 14.7687 97.0896 14.7761 97.0706 14.7898C97.0517 14.8034 97.0374 14.8226 97.0298 14.8447ZM98.1384 11.8996C98.1319 11.9162 98.1296 11.9342 98.1316 11.9519C98.1337 11.9696 98.1401 11.9866 98.1502 12.0013C98.1603 12.016 98.1739 12.028 98.1897 12.0362C98.2055 12.0444 98.2231 12.0487 98.241 12.0485L102.311 12.0287C102.329 12.0288 102.347 12.0246 102.362 12.0163C102.378 12.0081 102.392 11.9961 102.402 11.9814C102.412 11.9667 102.418 11.9498 102.421 11.9321C102.423 11.9143 102.42 11.8964 102.414 11.8798L100.349 6.63147C100.34 6.61162 100.326 6.59476 100.308 6.58304C100.29 6.57131 100.268 6.56524 100.247 6.56559C100.225 6.56595 100.204 6.57271 100.186 6.58503C100.169 6.59734 100.155 6.61466 100.147 6.63478L98.1384 11.8996Z" fill="#072F00"/>
<path d="M118.516 3.18724L115.452 3.19259C115.402 3.19268 115.362 3.23275 115.363 3.2821L115.389 18.3188C115.389 18.3681 115.429 18.408 115.478 18.408L118.543 18.4026C118.592 18.4025 118.632 18.3625 118.632 18.3131L118.606 3.27644C118.605 3.22709 118.565 3.18716 118.516 3.18724Z" fill="#072F00"/>
<path d="M124.595 7.22048L124.863 18.2995C124.863 18.3136 124.861 18.3278 124.856 18.341C124.851 18.3542 124.843 18.3663 124.833 18.3765C124.823 18.3867 124.811 18.3948 124.798 18.4003C124.785 18.4058 124.771 18.4087 124.757 18.4087H121.785C121.772 18.4087 121.758 18.4059 121.745 18.4006C121.732 18.3953 121.72 18.3875 121.711 18.3776C121.701 18.3678 121.693 18.3561 121.688 18.3433C121.682 18.3304 121.68 18.3167 121.68 18.3028V3.29254C121.68 3.27863 121.682 3.26486 121.688 3.25201C121.693 3.23917 121.701 3.22749 121.711 3.21766C121.72 3.20783 121.732 3.20003 121.745 3.19471C121.758 3.18939 121.772 3.18665 121.785 3.18665H126.197C126.219 3.18692 126.24 3.19409 126.258 3.20714C126.276 3.22019 126.289 3.23848 126.296 3.25945L129.929 14.5403C129.936 14.5617 129.949 14.5804 129.968 14.5937C129.986 14.607 130.008 14.6141 130.03 14.6141C130.053 14.6141 130.075 14.607 130.093 14.5937C130.111 14.5804 130.124 14.5617 130.131 14.5403L133.774 3.25945C133.781 3.23848 133.795 3.22019 133.812 3.20714C133.83 3.19409 133.852 3.18692 133.874 3.18665H138.202C138.216 3.18665 138.23 3.18939 138.243 3.19471C138.255 3.20003 138.267 3.20783 138.277 3.21766C138.287 3.22749 138.295 3.23917 138.3 3.25201C138.305 3.26486 138.308 3.27863 138.308 3.29254V18.3028C138.308 18.3167 138.305 18.3304 138.3 18.3433C138.295 18.3561 138.287 18.3678 138.277 18.3776C138.267 18.3875 138.255 18.3953 138.243 18.4006C138.23 18.4059 138.216 18.4087 138.202 18.4087H135.346C135.332 18.4087 135.318 18.4058 135.305 18.4003C135.292 18.3948 135.28 18.3867 135.27 18.3765C135.26 18.3663 135.253 18.3542 135.247 18.341C135.242 18.3278 135.24 18.3136 135.24 18.2995L135.512 7.20724C135.511 7.18271 135.502 7.15923 135.485 7.14082C135.469 7.1224 135.447 7.1102 135.423 7.10629C135.399 7.10238 135.374 7.10702 135.352 7.11939C135.331 7.13177 135.315 7.15113 135.307 7.17415L131.786 18.3359C131.779 18.3568 131.765 18.3751 131.748 18.3882C131.73 18.4012 131.708 18.4084 131.686 18.4087H128.523C128.501 18.4084 128.479 18.4012 128.462 18.3882C128.444 18.3751 128.43 18.3568 128.424 18.3359L124.803 7.18739C124.797 7.16154 124.781 7.13901 124.759 7.12428C124.737 7.10954 124.71 7.10367 124.684 7.10784C124.658 7.11201 124.634 7.12591 124.617 7.14678C124.601 7.16765 124.593 7.19396 124.595 7.22048Z" fill="#072F00"/>
<path d="M144.513 13.2795V18.2432C144.513 18.3535 144.457 18.4086 144.347 18.4086H141.617C141.507 18.4086 141.452 18.3535 141.452 18.2432V3.35539C141.452 3.31471 141.468 3.27564 141.497 3.24657C141.526 3.21749 141.566 3.20073 141.607 3.19986C143.851 3.16677 146.108 3.17228 148.378 3.21641C151.349 3.27597 153.841 3.83852 154.377 6.99213C155.549 13.8685 148.957 13.114 144.698 13.0942C144.574 13.0942 144.513 13.1559 144.513 13.2795ZM144.503 6.13837L144.509 10.1623C144.509 10.222 144.533 10.2792 144.575 10.3214C144.617 10.3636 144.675 10.3873 144.734 10.3873L148.328 10.3807C148.686 10.3801 149.041 10.3274 149.372 10.2256C149.703 10.1238 150.003 9.97489 150.256 9.78742C150.509 9.59995 150.709 9.37758 150.846 9.13301C150.982 8.88845 151.052 8.62649 151.051 8.36211V7.91207C151.05 7.37881 150.761 6.86806 150.25 6.49205C149.738 6.11603 149.044 5.90551 148.321 5.90673L144.728 5.91335C144.668 5.91335 144.611 5.93706 144.569 5.97926C144.526 6.02146 144.503 6.07869 144.503 6.13837Z" fill="#072F00"/>
<path d="M159.476 3.18418L156.637 3.18913C156.517 3.18934 156.419 3.2873 156.419 3.40792L156.445 18.1931C156.445 18.3137 156.543 18.4113 156.664 18.4111L159.503 18.4062C159.624 18.406 159.721 18.308 159.721 18.1874L159.695 3.4022C159.695 3.28158 159.597 3.18397 159.476 3.18418Z" fill="#072F00"/>
<path d="M165.37 14.901L164.172 18.2895C164.158 18.3305 164.131 18.3659 164.095 18.3908C164.06 18.4158 164.017 18.4289 163.974 18.4285L161.157 18.402C161.123 18.4019 161.09 18.3934 161.06 18.3772C161.029 18.361 161.004 18.3376 160.985 18.3092C160.966 18.2808 160.954 18.2481 160.951 18.2141C160.947 18.1801 160.953 18.1457 160.966 18.1141L167.011 3.3157C167.027 3.27765 167.054 3.24508 167.088 3.22212C167.122 3.19915 167.162 3.18681 167.203 3.18665H170.162C170.203 3.18681 170.243 3.19915 170.277 3.22212C170.311 3.24508 170.338 3.27765 170.354 3.3157L176.518 18.1208C176.531 18.1524 176.537 18.1867 176.533 18.2207C176.53 18.2547 176.518 18.2874 176.499 18.3158C176.48 18.3443 176.455 18.3676 176.424 18.3838C176.394 18.4 176.361 18.4085 176.327 18.4087H173.309C173.266 18.4084 173.224 18.3949 173.189 18.37C173.154 18.3451 173.128 18.3101 173.113 18.2697L171.909 14.9109C171.895 14.8705 171.868 14.8354 171.833 14.8105C171.798 14.7857 171.757 14.7722 171.714 14.7719L165.569 14.762C165.525 14.7616 165.483 14.7747 165.447 14.7997C165.411 14.8246 165.385 14.86 165.37 14.901ZM166.515 11.8963C166.509 11.9138 166.507 11.9326 166.509 11.9511C166.511 11.9696 166.518 11.9873 166.529 12.0025C166.54 12.0178 166.554 12.0303 166.571 12.0389C166.587 12.0474 166.606 12.0519 166.624 12.0518L170.622 12.022C170.64 12.0221 170.659 12.0176 170.675 12.0091C170.692 12.0005 170.706 11.988 170.717 11.9728C170.728 11.9575 170.734 11.9398 170.737 11.9213C170.739 11.9028 170.737 11.884 170.731 11.8665L168.692 6.58843C168.683 6.56706 168.668 6.54885 168.649 6.53616C168.63 6.52347 168.607 6.51688 168.584 6.51723C168.561 6.51759 168.538 6.52488 168.519 6.53816C168.5 6.55144 168.486 6.57011 168.477 6.59174L166.515 11.8963Z" fill="#072F00"/>
<path d="M187.574 13.7163L187.415 3.30246C187.415 3.28741 187.418 3.27243 187.423 3.25839C187.429 3.24436 187.437 3.23156 187.447 3.22076C187.458 3.20996 187.47 3.20137 187.484 3.19551C187.498 3.18965 187.513 3.18664 187.528 3.18665H190.48C190.51 3.18665 190.538 3.1985 190.559 3.2196C190.58 3.2407 190.592 3.26932 190.592 3.29915V18.2961C190.592 18.326 190.58 18.3546 190.559 18.3757C190.538 18.3968 190.51 18.4087 190.48 18.4087H187.055C187.034 18.4087 187.014 18.4031 186.997 18.3926C186.979 18.3821 186.965 18.3671 186.955 18.3491L180.86 7.27342C180.848 7.25128 180.829 7.23373 180.806 7.22354C180.784 7.21336 180.758 7.21113 180.733 7.21722C180.709 7.2233 180.688 7.23735 180.672 7.25713C180.657 7.27691 180.648 7.30128 180.648 7.32637L180.807 18.2961C180.807 18.326 180.795 18.3546 180.774 18.3757C180.753 18.3968 180.724 18.4087 180.695 18.4087H177.716C177.687 18.4087 177.658 18.3968 177.637 18.3757C177.616 18.3546 177.604 18.326 177.604 18.2961V3.29915C177.604 3.26932 177.616 3.2407 177.637 3.2196C177.658 3.1985 177.687 3.18665 177.716 3.18665H181.466C181.486 3.18665 181.506 3.19219 181.524 3.20268C181.541 3.21317 181.555 3.22822 181.565 3.24621L187.363 13.7726C187.374 13.795 187.394 13.8127 187.417 13.8228C187.44 13.833 187.466 13.835 187.491 13.8284C187.515 13.8219 187.537 13.8073 187.552 13.7869C187.567 13.7666 187.575 13.7417 187.574 13.7163Z" fill="#072F00"/>
<path d="M209.322 3.18665H206.522C206.405 3.18665 206.311 3.28146 206.311 3.39843V18.1969C206.311 18.3138 206.405 18.4087 206.522 18.4087H209.322C209.439 18.4087 209.534 18.3138 209.534 18.1969V3.39843C209.534 3.28146 209.439 3.18665 209.322 3.18665Z" fill="#072F00"/>
<path d="M200.04 18.4086H197.181C197.145 18.4086 197.11 18.3943 197.085 18.3689C197.059 18.3434 197.045 18.3089 197.045 18.273V5.9696C197.045 5.93362 197.031 5.89911 197.005 5.87366C196.98 5.84822 196.945 5.83393 196.909 5.83393H192.465C192.429 5.83393 192.395 5.81963 192.369 5.79419C192.344 5.76874 192.33 5.73423 192.33 5.69825V3.40502C192.33 3.36904 192.344 3.33453 192.369 3.30909C192.395 3.28364 192.429 3.26935 192.465 3.26935H204.851C204.887 3.26935 204.922 3.28364 204.947 3.30909C204.973 3.33453 204.987 3.36904 204.987 3.40502V5.79091C204.987 5.82689 204.973 5.8614 204.947 5.88684C204.922 5.91229 204.887 5.92658 204.851 5.92658L200.354 5.89349C200.318 5.89349 200.284 5.90778 200.258 5.93323C200.233 5.95867 200.219 5.99318 200.219 6.02916L200.176 18.273C200.176 18.2908 200.172 18.3084 200.165 18.3249C200.158 18.3413 200.148 18.3563 200.136 18.3689C200.123 18.3815 200.108 18.3915 200.092 18.3983C200.075 18.4051 200.058 18.4086 200.04 18.4086Z" fill="#072F00"/>
<path d="M99.8393 42.5653V39.4216C99.8393 39.3113 99.8945 39.2562 100.005 39.2562H102.156C102.264 39.2562 102.318 39.3113 102.318 39.4216L102.328 51.993C102.328 52.0724 102.297 52.1487 102.242 52.2061C102.188 52.2634 102.113 52.2973 102.033 52.3008C100.078 52.3868 96.5401 52.6317 94.8657 51.6257C92.9034 50.451 92.546 47.9261 93.0457 45.7884C93.7539 42.7804 96.7619 42.6613 99.654 42.7473C99.7776 42.7495 99.8393 42.6888 99.8393 42.5653ZM99.8096 50.1167L99.8824 45.0141C99.8828 44.9894 99.8783 44.965 99.8692 44.9421C99.8601 44.9193 99.8465 44.8984 99.8293 44.8809C99.812 44.8633 99.7914 44.8494 99.7687 44.8398C99.746 44.8303 99.7217 44.8254 99.6971 44.8254L97.8075 44.799C97.5136 44.7948 97.2218 44.8458 96.9488 44.949C96.6758 45.0523 96.4269 45.2057 96.2164 45.4005C96.0059 45.5954 95.8379 45.8278 95.7219 46.0846C95.606 46.3413 95.5445 46.6174 95.5408 46.8969L95.5209 48.1147C95.5134 48.6788 95.7417 49.2229 96.1556 49.6275C96.5695 50.0321 97.1351 50.264 97.7281 50.2723L99.6209 50.2987C99.6453 50.2992 99.6695 50.2948 99.6921 50.2859C99.7148 50.277 99.7354 50.2637 99.7529 50.2468C99.7705 50.2299 99.7845 50.2097 99.7942 50.1874C99.8039 50.1651 99.8091 50.1411 99.8096 50.1167Z" fill="#072F00"/>
<path d="M106.897 39.264L104.786 39.2419C104.663 39.2406 104.563 39.3388 104.562 39.4613L104.541 41.4202C104.54 41.5426 104.638 41.6429 104.761 41.6442L106.872 41.6663C106.994 41.6676 107.095 41.5694 107.096 41.4469L107.116 39.488C107.118 39.3656 107.019 39.2653 106.897 39.264Z" fill="#072F00"/>
<path d="M123.639 48.2305L123.576 39.3555C123.576 39.3291 123.586 39.3039 123.605 39.2853C123.623 39.2666 123.649 39.2562 123.675 39.2562H126.213C126.239 39.2562 126.265 39.2666 126.283 39.2853C126.302 39.3039 126.312 39.3291 126.312 39.3555V52.228C126.312 52.2543 126.302 52.2796 126.283 52.2982C126.265 52.3168 126.239 52.3272 126.213 52.3272H123.251C123.234 52.3273 123.217 52.3227 123.202 52.314C123.187 52.3052 123.174 52.2927 123.165 52.2776L117.785 42.7903C117.774 42.7714 117.757 42.7565 117.737 42.7482C117.717 42.7398 117.694 42.7383 117.673 42.744C117.652 42.7496 117.633 42.7621 117.62 42.7795C117.607 42.7968 117.599 42.8181 117.599 42.84L117.695 52.228C117.695 52.241 117.693 52.2539 117.688 52.266C117.683 52.278 117.676 52.2889 117.666 52.2982C117.657 52.3074 117.646 52.3147 117.634 52.3197C117.622 52.3247 117.609 52.3272 117.596 52.3272H114.992C114.966 52.3272 114.94 52.3168 114.922 52.2982C114.903 52.2796 114.893 52.2543 114.893 52.228L114.899 39.3521C114.899 39.3258 114.91 39.3006 114.928 39.2819C114.947 39.2633 114.972 39.2529 114.998 39.2529L118.324 39.2628C118.342 39.2628 118.359 39.2674 118.374 39.2761C118.389 39.2848 118.401 39.2973 118.41 39.3124L123.453 48.2802C123.464 48.2991 123.481 48.314 123.501 48.3223C123.521 48.3307 123.544 48.3322 123.565 48.3265C123.586 48.3209 123.605 48.3084 123.618 48.291C123.631 48.2737 123.639 48.2524 123.639 48.2305Z" fill="#072F00"/>
<path d="M131.205 39.2601L129.127 39.2456C128.992 39.2447 128.881 39.3535 128.88 39.4888L128.867 41.3948C128.866 41.53 128.975 41.6404 129.11 41.6414L131.188 41.6559C131.324 41.6568 131.434 41.5479 131.435 41.4127L131.448 39.5067C131.449 39.3715 131.34 39.2611 131.205 39.2601Z" fill="#072F00"/>
<path d="M136.24 39.2595H133.831C133.783 39.2595 133.745 39.298 133.745 39.3455V52.2379C133.745 52.2854 133.783 52.3239 133.831 52.3239H136.24C136.287 52.3239 136.326 52.2854 136.326 52.2379V39.3455C136.326 39.298 136.287 39.2595 136.24 39.2595Z" fill="#072F00"/>
<path d="M140.677 39.2476L138.718 39.2647C138.53 39.2664 138.378 39.4203 138.38 39.6085L138.395 41.316C138.396 41.5042 138.55 41.6555 138.739 41.6538L140.698 41.6367C140.886 41.6351 141.037 41.4812 141.035 41.2929L141.021 39.5855C141.019 39.3972 140.865 39.246 140.677 39.2476Z" fill="#072F00"/>
<path d="M156.571 49.21L151.233 49.0876C151.185 49.0862 151.138 49.1003 151.098 49.1276C151.058 49.155 151.028 49.1943 151.012 49.2398L149.946 52.1783C149.93 52.2222 149.901 52.26 149.862 52.2866C149.824 52.3133 149.778 52.3275 149.731 52.3272H147.332C147.294 52.3275 147.257 52.3184 147.223 52.3006C147.19 52.2829 147.161 52.2571 147.14 52.2256C147.119 52.1941 147.106 52.1578 147.103 52.1201C147.099 52.0824 147.105 52.0444 147.12 52.0096L152.425 39.3985C152.442 39.357 152.472 39.3216 152.51 39.2969C152.547 39.2722 152.591 39.2592 152.636 39.2595L155.234 39.2562C155.279 39.2558 155.323 39.2689 155.361 39.2936C155.399 39.3183 155.428 39.3537 155.446 39.3952L160.84 52.0096C160.855 52.0444 160.861 52.0824 160.857 52.1201C160.854 52.1578 160.841 52.1941 160.82 52.2256C160.799 52.2571 160.77 52.2829 160.737 52.3006C160.703 52.3184 160.666 52.3275 160.628 52.3272H158.116C158.071 52.327 158.026 52.313 157.988 52.2871C157.95 52.2611 157.921 52.2244 157.905 52.1816L156.779 49.3523C156.763 49.3107 156.734 49.2751 156.697 49.2498C156.66 49.2245 156.616 49.2106 156.571 49.21ZM152.024 46.6488C152.018 46.6654 152.015 46.6833 152.018 46.7011C152.02 46.7188 152.026 46.7357 152.036 46.7504C152.046 46.7651 152.06 46.7771 152.076 46.7854C152.091 46.7936 152.109 46.7978 152.127 46.7977L155.638 46.7712C155.655 46.7708 155.673 46.7662 155.688 46.7577C155.703 46.7493 155.717 46.7372 155.726 46.7226C155.736 46.708 155.742 46.6912 155.744 46.6738C155.746 46.6563 155.744 46.6387 155.737 46.6223L153.95 42.2708C153.942 42.2508 153.928 42.2337 153.91 42.2217C153.892 42.2097 153.871 42.2033 153.849 42.2033C153.828 42.2033 153.807 42.2097 153.789 42.2217C153.771 42.2337 153.757 42.2508 153.748 42.2708L152.024 46.6488Z" fill="#072F00"/>
<path d="M164.267 39.2542L161.95 39.2582C161.862 39.2584 161.792 39.3296 161.792 39.4173L161.814 52.1707C161.814 52.2584 161.885 52.3294 161.973 52.3293L164.289 52.3252C164.377 52.3251 164.448 52.2538 164.448 52.1661L164.426 39.4127C164.426 39.325 164.354 39.254 164.267 39.2542Z" fill="#072F00"/>
<path d="M169.169 42.7308C170.814 42.7308 172.736 42.5322 174.129 43.5018C176.684 45.2854 176.631 49.8619 174.03 51.5562C172.346 52.6515 168.702 52.4067 166.634 52.2941C166.502 52.2875 166.436 52.218 166.436 52.0857V39.5043C166.436 39.3389 166.518 39.2562 166.684 39.2562H168.795C168.932 39.2562 169 39.3257 169 39.4646V42.562C169 42.6745 169.056 42.7308 169.169 42.7308ZM168.984 45.0538L168.977 50.0175C168.977 50.0842 169.003 50.1481 169.051 50.1953C169.098 50.2425 169.162 50.269 169.228 50.269L170.989 50.2723C171.293 50.2727 171.594 50.2161 171.876 50.1056C172.157 49.9951 172.412 49.8329 172.628 49.6282C172.843 49.4236 173.014 49.1805 173.131 48.9128C173.248 48.6452 173.308 48.3583 173.309 48.0684V47.0161C173.309 46.4307 173.066 45.869 172.632 45.4545C172.199 45.0399 171.61 44.8065 170.996 44.8056L169.235 44.8023C169.168 44.8023 169.104 44.8288 169.057 44.8759C169.01 44.9231 168.984 44.9871 168.984 45.0538Z" fill="#072F00"/>
<path d="M196.383 44.6335H195.05C194.996 44.6337 194.945 44.6139 194.905 44.5778C194.865 44.5418 194.84 44.492 194.835 44.4383L194.712 43.1278C194.707 43.0773 194.713 43.0264 194.73 42.9784C194.746 42.9303 194.772 42.8862 194.806 42.8488C194.841 42.8114 194.882 42.7816 194.929 42.7613C194.975 42.7409 195.025 42.7305 195.076 42.7308H196.092C196.394 42.7308 196.543 42.5796 196.539 42.2774L196.509 39.5242C196.507 39.3455 196.596 39.2562 196.777 39.2562H198.822C198.961 39.2562 199.03 39.3246 199.03 39.4613V42.4826C199.03 42.648 199.113 42.7308 199.279 42.7308H201.555C201.692 42.7308 201.761 42.7991 201.761 42.9359V44.3622C201.761 44.51 201.687 44.5861 201.539 44.5905L199.199 44.6534C199.051 44.6578 198.98 44.7339 198.984 44.8817L199.156 49.4979C199.163 49.6325 199.218 49.7406 199.322 49.8222C199.904 50.2811 200.567 50.4774 201.31 50.4113C201.368 50.4062 201.425 50.4131 201.479 50.4314C201.533 50.4497 201.583 50.4791 201.626 50.5176C201.668 50.5562 201.702 50.6031 201.725 50.6554C201.748 50.7078 201.76 50.7643 201.761 50.8216V51.993C201.761 52.1166 201.699 52.1905 201.575 52.2147C195.539 53.3067 196.436 48.6409 196.568 44.8254C196.573 44.6975 196.511 44.6335 196.383 44.6335Z" fill="#072F00"/>
<path d="M106.908 42.7374H104.737C104.622 42.7374 104.528 42.8307 104.528 42.9458V52.1188C104.528 52.2339 104.622 52.3272 104.737 52.3272H106.908C107.023 52.3272 107.116 52.2339 107.116 52.1188V42.9458C107.116 42.8307 107.023 42.7374 106.908 42.7374Z" fill="#072F00"/>
<path d="M131.263 42.7374H129.052C128.954 42.7374 128.874 42.8174 128.874 42.9161V52.1485C128.874 52.2472 128.954 52.3272 129.052 52.3272H131.263C131.362 52.3272 131.442 52.2472 131.442 52.1485V42.9161C131.442 42.8174 131.362 42.7374 131.263 42.7374Z" fill="#072F00"/>
<path d="M140.763 42.7341H138.665C138.514 42.7341 138.391 42.857 138.391 43.0087V52.0559C138.391 52.2076 138.514 52.3306 138.665 52.3306H140.763C140.915 52.3306 141.038 52.2076 141.038 52.0559V43.0087C141.038 42.857 140.915 42.7341 140.763 42.7341Z" fill="#072F00"/>
<path d="M180.251 46.5363H185.493C185.623 46.5363 185.69 46.6013 185.695 46.7315L185.744 48.3265C185.749 48.4567 185.686 48.5217 185.556 48.5217H180.235C180.087 48.5217 180.016 48.5956 180.023 48.7434C180.132 50.9209 183.868 50.398 185.344 50.3186C185.391 50.3159 185.439 50.3229 185.483 50.3391C185.528 50.3554 185.568 50.3805 185.603 50.4131C185.637 50.4456 185.664 50.4848 185.683 50.5283C185.702 50.5718 185.711 50.6187 185.711 50.666V52.0791C185.711 52.1938 185.654 52.2555 185.539 52.2644C183.818 52.3967 182.324 52.3758 181.055 52.2015C175.705 51.4669 175.767 43.0319 181.558 42.7804C183.083 42.7142 184.393 42.7032 185.49 42.7473C185.549 42.749 185.605 42.7738 185.647 42.8165C185.688 42.8591 185.711 42.9162 185.711 42.9756V44.5442C185.711 44.6545 185.656 44.7096 185.546 44.7096C183.977 44.7195 180.135 44.0114 180.102 46.3873C180.102 46.4866 180.152 46.5363 180.251 46.5363Z" fill="#072F00"/>
<path d="M187.33 42.8962C187.33 42.8622 187.342 42.8295 187.365 42.8049C187.388 42.7802 187.419 42.7655 187.452 42.7638C188.693 42.6943 192.833 42.4296 193.686 43.3595C194.325 44.0544 194.305 45.6196 194.206 46.4932C194.193 46.6101 194.128 46.6708 194.011 46.6752L192.002 46.7679C191.982 46.7688 191.962 46.7657 191.944 46.7588C191.925 46.7519 191.908 46.7414 191.894 46.7278C191.879 46.7143 191.868 46.6979 191.859 46.6798C191.851 46.6617 191.847 46.6421 191.847 46.6223L191.807 45.0902C191.798 44.8012 191.65 44.6467 191.363 44.6269L190.076 44.5276C189.924 44.5166 189.848 44.5872 189.848 44.7394V52.1618C189.848 52.2721 189.793 52.3272 189.682 52.3272H187.578C187.443 52.3272 187.376 52.2599 187.376 52.1254L187.33 42.8962Z" fill="#072F00"/>
</svg>
